<?xml version="1.0"?>
<svg width="512" height="512" xmlns="http://www.w3.org/2000/svg" xmlns:svg="http://www.w3.org/2000/svg">
 <g>
  <title>Layer 1</title>
  <path fill="#ffffff" id="svg_1" d="m462,280.720001l0,-49.440002l-46.414001,-16.479996c-3.902985,-15.098007 -9.921997,-29.343002 -17.674988,-42.447006l0.062988,-0.063995l21.167999,-44.473l-34.959991,-34.959991l-44.471008,21.167l-0.063995,0.064003c-13.104004,-7.753006 -27.35199,-13.772003 -42.446991,-17.673004l-16.480011,-46.414009l-49.440002,0l-16.479996,46.415001c-15.096008,3.900002 -29.343002,9.918999 -42.447006,17.674995l-0.063995,-0.065994l-44.473,-21.167l-34.959991,34.959999l21.167,44.472992l0.066002,0.064011c-7.755005,13.103989 -13.774002,27.35199 -17.675003,42.446991l-46.414009,16.479004l0,49.440002l46.415001,16.480011c3.900002,15.095978 9.920998,29.342987 17.674995,42.446991l-0.065994,0.063995l-21.167,44.471008l34.959999,34.959991l44.472992,-21.167999l0.064011,-0.062988c13.103989,7.752991 27.35199,13.770996 42.446991,17.674988l16.479004,46.414001l49.440002,0l16.480011,-46.414001c15.095978,-3.902985 29.342987,-9.921997 42.446991,-17.674988l0.063995,0.062988l44.471008,21.167999l34.959991,-34.959991l-21.167999,-44.471008l-0.062988,-0.063995c7.752991,-13.104004 13.770996,-27.35199 17.674988,-42.446991l46.414001,-16.480011zm-206,57.679993c-45.509003,0 -82.399994,-36.891998 -82.399994,-82.400009c0,-45.508987 36.890991,-82.399994 82.399994,-82.399994c45.509003,0 82.399994,36.891006 82.399994,82.399994c0,45.509018 -36.890991,82.400009 -82.399994,82.400009z"/>
 </g>
</svg>